<svg xmlns="http://www.w3.org/2000/svg" viewBox="0 0 200 200">
  <g fill="#e9c46a">
    <polygon points="70,40 75,60 95,60 80,72 85,92 70,80 55,92 60,72 45,60 65,60" />
    <line x1="70" y1="92" x2="70" y2="140" stroke="#e9c46a" stroke-width="1.5"/>
    <polygon points="70,130 74,142 86,142 76,150 80,162 70,154 60,162 64,150 54,142 66,142" />
  </g>
  <g fill="#f5d97a" transform="translate(60)">
    <polygon points="70,40 75,60 95,60 80,72 85,92 70,80 55,92 60,72 45,60 65,60" />
    <line x1="70" y1="92" x2="70" y2="160" stroke="#f5d97a" stroke-width="1.5"/>
    <polygon points="70,150 74,162 86,162 76,170 80,180 70,174 60,180 64,170 54,162 66,162" />
  </g>
</svg>
